<?xml version="1.0" encoding="utf-8"?>
<!-- Generator: Adobe Illustrator 25.2.3, SVG Export Plug-In . SVG Version: 6.00 Build 0)  -->
<svg version="1.1" id="Layer_1" xmlns="http://www.w3.org/2000/svg" xmlns:xlink="http://www.w3.org/1999/xlink" x="0px" y="0px"
	 viewBox="0 0 438.4 307.1" style="enable-background:new 0 0 438.4 307.1;" xml:space="preserve">
<style type="text/css">
	.st0{fill:#F17125;}
	.st1{fill:#FFFFFF;}
	.st2{fill:#ED7125;}
	.st3{clip-path:url(#SVGID_2_);}
	.st4{clip-path:url(#SVGID_4_);}
	.st5{fill:none;}
	.st6{fill:none;stroke:#ED7125;stroke-width:6;stroke-miterlimit:10;}
	.st7{fill:#FFFFFF;stroke:#FFFFFF;stroke-width:12;stroke-miterlimit:10;}
	.st8{clip-path:url(#SVGID_6_);}
	.st9{fill:#EE7125;}
	.st10{opacity:0.15;fill:#FFFFFF;}
	.st11{clip-path:url(#SVGID_8_);}
	.st12{clip-path:url(#SVGID_10_);}
	.st13{clip-path:url(#SVGID_12_);fill:#FFFFFF;}
	.st14{clip-path:url(#SVGID_12_);fill:#EE7125;}
	.st15{fill:none;stroke:#FFFFFF;stroke-miterlimit:10;}
	.st16{fill:none;stroke:#ED7125;stroke-width:5;stroke-miterlimit:10;}
	.st17{fill:#F6B892;}
	.st18{fill:none;stroke:#ED7125;stroke-width:0;stroke-linecap:round;stroke-linejoin:round;}
	.st19{opacity:0.5;fill:#ED7125;}
	.st20{opacity:0.5;fill:#FFFFFF;}
	.st21{fill:#61D48C;}
	.st22{fill:#418CBE;}
	.st23{opacity:0.1;}
	.st24{fill:#205373;}
</style>
<g>
	<path class="st20" d="M133.5,242.3c0.5,0,1-0.1,1.4-0.3c8.9-5.6,18.3-10.4,28.7-14.8c0.6-0.2,1.1-0.7,1.3-1.3
		c0.2-0.6,0.2-1.3-0.1-1.9c-4.5-9.6-8.2-19.5-11.3-30.1c-16.8,2.3-33.3,4.5-48.9,6.6c6.2,15.3,15.3,29.2,27.4,41.3
		C132.5,242.1,133,242.3,133.5,242.3z"/>
	<path class="st20" d="M295.4,202c-0.1,1.2,0.8,2.3,2,2.5c0,0,0.3,0,0.4,0c11.2,0.7,21.4,2.2,31.2,4.4c0,0,0,0,0,0
		c0.2,0,0.3,0.1,0.6,0.1c0.1,0,0.2,0,0.3,0.1c0.2,0,0.4,0,0.6,0c1.3-0.2,1.9-1.4,2.1-1.8c5.9-12.6,9.7-25.7,11.2-39.2
		c-12.5,1.7-28.7,3.9-47.5,6.5C296.7,183.8,296.4,192.9,295.4,202z"/>
	<path class="st20" d="M278.7,261.6c0.4,0.4,0.9,0.6,1.4,0.7c0.4,0,0.9-0.1,1.3-0.3c15.6-8.8,29-20.9,39.9-35.8l0.2-0.3
		c1.1-1.5,2.2-3.1,3.3-4.8c0.4-0.6,0.4-1.4,0.1-2.1c-0.3-0.7-0.9-1.2-1.6-1.3c-7.9-1.6-16.5-2.8-27.1-3.6c-0.2,0-0.3,0-0.5,0
		c-1,0-2,0.7-2.2,1.7c0,0.1-0.1,0.4-0.1,0.5c-1.9,11.2-4.9,21.2-9,30.8c-1.6,3.7-3.6,7.6-6.1,11.8
		C277.8,259.7,278,260.9,278.7,261.6z"/>
	<path class="st20" d="M233.8,205.4c0.2,1,1.1,1.6,2,1.7c0.1,0,0.2,0,0.3,0c0.2,0,0.5,0,0.8-0.1c15.1-2.3,30.3-3.4,45.3-3.2
		c0.5,0,0.9,0,1.2,0c1.1-0.1,2-0.9,2.1-1.9c0-0.3,0.1-0.7,0.2-1.3c0.7-8.2,1-16.4,0.8-24.8c-17.4,2.4-36.5,4.9-56.4,7.6
		c1.2,7.3,2.4,14.4,3.5,21.3C233.7,205,233.8,205.2,233.8,205.4z"/>
	<path class="st20" d="M239.6,239.4l2.3,13.6c1.1,6.5,2.2,12.9,3.2,19.4c0.1,0.7,0.7,1.2,1.3,1.6c0.2,0.1,0.5,0.2,0.9,0.2
		c0.4,0,0.9,0,1.3-0.2l0.5-0.2c8.8-4.1,15.9-11.2,22.2-22.4c5.4-9.5,9.2-20.6,12.1-34.7c0,0,0.1-0.3,0.1-0.3
		c0.1-0.7-0.1-1.4-0.5-1.9c-0.4-0.5-1.1-0.8-1.8-0.8l-0.3,0c-13.4,0-27.3,1-42.7,3.1l0.3,2.3l-0.3-2.3c-1.2,0.2-2.1,1.3-1.9,2.5
		c0,0,0.1,0.4,0.1,0.4C237.4,226.2,238.5,232.8,239.6,239.4z"/>
	<path class="st20" d="M174.3,220.9c0.4,0.6,1.1,1.1,1.8,1.1c0.3,0,0.5,0,0.8-0.1c0.3-0.1,0.6-0.2,0.8-0.3
		c13.8-5.1,28.4-9.1,44.5-12.1l0.4-0.1c1.2-0.3,1.9-1.5,1.7-2.7c-1.3-7.3-2.5-14.6-3.8-22c-18.7,2.5-37.9,5.1-56.9,7.7
		c2.9,9.7,6.4,19.1,10.5,28C174.1,220.5,174.2,220.8,174.3,220.9z"/>
	<path class="st20" d="M242.4,286.1c-34.9,5.9-71.2-2.4-100.2-23c-21.9-15.6-38.3-36.8-47.7-61.3c-3.3,0.4-6.5,0.9-9.7,1.3
		c20.6,56.2,75.1,95.8,138.3,94.5c74.5-1.6,134.6-59.5,140.5-132.3c-2.6,0.4-5.9,0.8-9.8,1.4C348.1,225.5,303.5,275.7,242.4,286.1z"
		/>
	<path class="st20" d="M183.6,237.9L183.6,237.9c1.3,2.1,2.5,4.1,3.9,6c7.1,10.3,14.6,18.1,22.8,23.9c7.6,5.4,15,8.3,22.9,8.9
		c0.7,0.1,1.4-0.2,1.9-0.7c0.5-0.5,0.7-1.2,0.6-1.9c-1.1-6.1-2.1-12.3-3.2-18.4l-2.5-14.6c-1.1-6.7-2.3-13.4-3.4-20.2
		c-0.3-1.2-1.5-2-2.7-1.8c-15.5,3.2-29.2,6.8-41.7,11.2c-0.7,0.2-1.2,0.8-1.4,1.4c-0.2,0.7-0.1,1.4,0.2,2
		C181.9,235.1,182.8,236.5,183.6,237.9z"/>
	<path class="st20" d="M143.6,251.8c16.2,12.4,34.4,20.6,54.1,24.2c0.1,0,0.2,0,0.2,0c0.9,0.1,1.8-0.4,2.3-1.3
		c0.4-0.9,0.2-2.1-0.6-2.7c-1.9-1.6-3.7-3.3-5.4-5c-8.5-8.2-15.9-18.1-22.8-30.5c-0.6-0.9-1.7-1.3-2.7-0.9c-0.1,0-0.2,0.1-0.3,0.1
		l0,0c-9.6,4.2-17.4,8.1-24.5,12.3c-0.7,0.4-1.1,1.1-1.1,1.8C142.7,250.6,143,251.4,143.6,251.8z"/>
	<path class="st20" d="M257.6,70.7c-8.6-14-17.2-23.8-27.2-31c-7.7-5.6-15.3-8.6-23.4-9.3c-0.7-0.1-1.4,0.2-1.9,0.7
		c-0.5,0.5-0.7,1.2-0.6,1.9c1.1,6.2,2.2,12.5,3.2,18.6l2.6,15.4c1.1,6.4,2.2,12.7,3.2,19.1c0.1,0.6,0.5,1.2,1,1.5
		c0.3,0.2,0.7,0.4,1.1,0.4c0.2,0,0.4,0,0.7,0c14-2.8,26.7-6.2,38.8-10.3c1.1-0.4,2.3-0.8,3-1.1c0.5-0.3,1-0.7,1.2-1.3
		c0.2-0.6,0.2-1.2-0.1-1.7C259,72.9,258.3,71.7,257.6,70.7z"/>
	<path class="st20" d="M266.8,87.4c-0.4-1-0.9-1.6-1.4-1.9c-0.5-0.3-1-0.4-1.6-0.4c-0.4,0-0.9,0.1-1.4,0.3
		c-13.5,5.1-27.9,9-44.1,12.1c-0.3,0.1-0.5,0.1-0.7,0.2c-1,0.3-1.8,1.3-1.7,2.3c0,0.2,0,0.4,0.1,0.7c1.4,7.9,2.7,15.8,4,23.6
		c19.1-4.5,38-9,55.6-13.2c0-0.1-0.1-0.2-0.1-0.3C273,102.6,270,94.7,266.8,87.4z"/>
	<path class="st20" d="M158.5,54.4c1-2,2-4,3.2-6c0.5-0.9,0.4-2-0.3-2.8c-0.7-0.7-1.9-0.9-2.8-0.4c-17.4,9.9-31.9,23.6-43.1,40.7
		c-0.4,0.6-0.5,1.4-0.2,2.1c0.3,0.7,0.9,1.2,1.7,1.4c7.5,1.5,15.6,2.6,24.9,3.4c0.8,0.1,1.5,0.1,2.3,0.2c0,0,0.3,0,0.3,0
		c1.1,0,2-0.7,2.3-1.8l0.1-0.5c2.5-13.8,6.2-25.6,11.5-36L158.5,54.4z"/>
	<path class="st20" d="M308,65.3c-0.7-0.6-1.8-0.7-2.6-0.2c0,0-0.3,0.2-0.4,0.2c-6.7,4.5-14,7.9-21.1,11.3l-0.6,0.3
		c-1.8,0.8-3.5,1.7-5.2,2.5c-0.9,0.4-1.5,0.7-1.8,0.9c-0.9,0.6-1.3,1.7-1,2.7c0.1,0.3,0.3,0.8,0.6,1.4l0.1,0.3
		c3.5,7.8,6.5,15.9,9.2,24.2c17.3-4.1,33.1-7.8,46.3-10.9c-5.9-11.9-13.7-22.8-23.1-32.3C308.3,65.5,308.1,65.4,308,65.3z"/>
	<path class="st20" d="M110.6,75.5c20.8-29.2,51.9-48.6,87.5-54.6c10.3-1.7,20.7-2.3,31.1-1.6c0.7,0,1.4,0.1,2.1,0.2
		c48.5,4,89.9,33.7,110.1,76.1c3.5-0.8,6.7-1.5,9.6-2.2c-23.2-50.6-74.8-85.2-134-84C137.5,11.2,74.4,77.1,76.1,156.6
		c0,0.7,0.1,1.5,0.1,2.2c3-0.7,6.1-1.5,9.5-2.3C85.1,127.6,93.6,99.4,110.6,75.5z"/>
	<path class="st20" d="M206.4,101.7c-0.3-1.1-1.3-1.8-2.4-1.7c-0.2,0-0.4,0-0.6,0.1c-16.4,2.5-31.4,3.5-45.8,3.1
		c-0.5,0-0.9,0-1.3,0.1c-0.7,0.2-1.3,0.7-1.6,1.4c-0.1,0.3-0.2,0.5-0.2,0.8c0,0.2-0.1,0.4-0.1,0.7c-1,11.2-1.1,22.5-0.4,34
		c18-4.3,37.2-8.9,56.5-13.5c-1.4-8.1-2.8-16.3-4.1-24.4C206.5,102,206.5,101.8,206.4,101.7z"/>
	<path class="st20" d="M193.9,33c-0.6-0.3-1.4-0.4-2-0.1c-5.6,2.5-10.5,6.2-15,11.3c-6.6,7.6-11.5,16.8-15.5,28.9
		c-1.9,5.8-3.4,11.7-4.5,17.6c-0.1,0.7,0.1,1.3,0.5,1.9c0.4,0.5,1,0.8,1.6,0.8c0.1,0,0.1,0,0.2,0c13,0.1,27.1-0.8,43.1-3
		c0.6-0.1,1.2-0.4,1.5-0.9c0.4-0.5,0.5-1.1,0.4-1.7c-3-17.7-6-35.4-9-53.1C195,33.9,194.5,33.3,193.9,33z"/>
	<path class="st20" d="M296.7,55.3c-15.3-11.8-32.5-19.7-51-23.6c-0.9-0.4-7.1-1.6-9.4-1.8c-1.3-0.1-2.6,0.9-2.6,2.2
		c0,0.2,0,0.4,0.1,0.5c0,0.1,0,0.3,0.1,0.4c0,0.1,0.1,0.2,0.2,0.4c0.1,0.2,0.1,0.3,0.2,0.5c0,0,0,0,0,0c0.4,0.5,6.5,4,9,6.3
		c8.9,8.3,18.4,17.3,25.7,30.2l2-1.1l-2,1.1c0.4,0.7,1.1,1.1,1.8,1.1c0.4,0,0.7,0,1.1-0.2c9.1-3.9,17.2-7.9,24.7-12.3
		c0.7-0.4,1.1-1.1,1.1-1.8C297.6,56.5,297.3,55.8,296.7,55.3z"/>
	<path class="st20" d="M144.8,105.4c0,0,0-0.3,0-0.3c0.1-1.2-0.8-2.3-2-2.5c-0.1,0-0.3,0-0.4,0c-11.4-0.7-21.8-2.2-31.7-4.5
		c-0.2,0-0.3-0.1-0.4-0.1c-0.9-0.2-1.8,0.3-2.3,1.1c0,0.1-0.2,0.3-0.2,0.4c-8.3,17.4-12.4,35.7-12.3,54.7c14-3.4,30.7-7.4,48.8-11.7
		C143.5,129.7,143.6,117.5,144.8,105.4z"/>
	<path class="st1" d="M415,107.7c-3-1.3-6.7-2.3-10.9-3c-2.1-0.4-4.4-0.6-6.8-0.8c-3.9-0.3-8.2-0.4-12.8-0.2
		c-3.8,0.1-7.7,0.4-11.5,0.9c-27.1,3.2-53.5,13.8-62.3,25.7c-7.6,10.3,0.2,18.6,17.8,21.6c2.2,0.4,4.5,0.6,6.9,0.8
		c3.9,0.3,8.2,0.4,12.8,0.2c6.8-0.2,13.7-1,20.5-2.2c17.2-3,33.3-8.9,43.8-15.9c4.1-2.7,7.3-5.6,9.5-8.5
		C427.7,118.4,424.6,111.7,415,107.7z"/>
	<path class="st1" d="M300.1,121.2L56.7,179.4c-15.5,3.6-29.8,8.4-42.8,17.5l-0.3,1.6l231.1-33.2C278.8,161,278.8,148.3,300.1,121.2
		z"/>
</g>
</svg>
